# xmcd
#
# Track frame offsets:
#	150
#	16230
#	31035
#	44778
#	61096
#	78783
#	95695
#	112132
#	130386
#	143632
#	165331
#	183129
#	197778
#	216944
#	238802
#	258225
#
# Disc length: 3841 seconds
#
# Revision: 2
# Processed by: cddbd v1.5.2PL0 Copyright (c) Steve Scherf et al.
# Submitted via: EasyCDDAExtractor 15.3.0.1
#
DISCID=d80eff10
DTITLE=Marta Sanchez - De Par En Par
DYEAR=2010
DGENRE=Latin
TTITLE0=Soy Yo (Con Nena Daconte)
TTITLE1=Desconocida (Con Vega)
TTITLE2=Con Solo Una Mirada (Con Bebe)
TTITLE3=Moja Mi Corazon (Con Luis Fonsi)
TTITLE4=Desesperada (Con Belinda)
TTITLE5=Quiero Mas De Ti (Con Hombres G)
TTITLE6=Escrito Sobre El Viento (Con Antonio Vega)
TTITLE7=Soldados Del Amor (Con Malu)
TTITLE8=Levantate (Con Nek)
TTITLE9=No Te Quiero Mas (Con Jose Merce)
TTITLE10=En Tus Brazos (Con Sergio Dalma)
TTITLE11=This Ain't A Love Song (Con Emilia De Poret) (Bonus Track)
TTITLE12=Broken Strings (Con James Morrison) (Bonus Track)
TTITLE13=Cancion Para Daniela (Bonus Track)
TTITLE14=Deh! Vieni Alla Finestra (Con Antonio Campo) (Bonus Track)
TTITLE15=Data Track
EXTD=
EXTT0=
EXTT1=
EXTT2=
EXTT3=
EXTT4=
EXTT5=
EXTT6=
EXTT7=
EXTT8=
EXTT9=
EXTT10=
EXTT11=
EXTT12=
EXTT13=
EXTT14=
EXTT15=
PLAYORDER=
